<svg width="463" height="636" viewBox="0 0 463 636" fill="none" xmlns="http://www.w3.org/2000/svg">
<mask id="path-1-outside-1_125_1437" maskUnits="userSpaceOnUse" x="-0.146484" y="-0.154541" width="463" height="636" fill="black">
<rect fill="white" x="-0.146484" y="-0.154541" width="463" height="636"/>
<path d="M350.606 591.085C203.105 682.951 18.0845 582.444 10.7322 410.082C7.92775 344.593 12.9303 277.134 10.7322 211.418C27.1044 19.9546 265.638 -59.8597 396.994 82.1839C434.286 122.508 448.839 164.575 451.113 219.073C453.235 269.706 452.25 321.551 451.947 372.107C451.795 394.771 452.629 416.979 449.521 439.491C440.88 501.872 403.664 558.038 350.606 591.085ZM216.976 17.0743L200.983 19.045L201.816 32.2337L216.976 30.7178V17.0743ZM239.715 17.0743H223.04L223.798 29.9598H237.062C237.214 29.9598 237.517 30.5662 237.82 30.5662L238.881 29.505L239.715 17.0743ZM261.696 17.8323L245.779 17.0743L245.021 30.7178L260.256 31.1725L261.696 17.8323ZM193.479 20.1062L177.561 22.3801L179.835 36.0235L194.995 33.7496L193.479 20.1062ZM282.919 36.7815C281.707 34.1286 285.951 24.5782 284.89 23.0623L269.276 20.1062L267.76 33.7496L282.919 36.7815ZM172.256 24.654L156.338 29.2018L159.37 42.8453L174.53 38.2975C173.014 34.2044 171.119 28.8986 172.256 24.654ZM306.341 29.2018L291.257 24.5782C290.954 29.2776 289.968 34.2802 287.467 38.2217L303.384 42.7695L306.341 29.2018ZM149.517 32.9917L135.949 39.5102L140.421 51.9409L154.064 45.8772L149.517 32.9917ZM323.092 51.9409L327.336 39.0554L313.238 32.9917L308.69 45.8772L323.092 51.9409ZM135.115 54.897C131.553 51.4861 130.34 46.8625 127.914 42.7695L115.635 50.7282L121.244 61.7945L135.191 54.897H135.115ZM342.041 62.5525L347.347 50.8798L334.84 42.8453L329.307 54.5938L341.965 62.5525H342.041ZM46.4326 277.058V309.272C46.4326 309.575 47.6454 310.56 48.2518 310.409L79.4043 309.651L80.9961 310.333L80.0865 317.23C68.8685 317.458 57.499 319.656 46.4326 317.23V354.371L80.9961 345.275L82.4362 346.033L84.1037 350.96C83.9521 352.249 81.2993 353.234 80.2381 353.613C73.7196 356.039 51.8142 359.753 48.0244 363.088C44.2345 366.423 46.4326 364.983 46.4326 365.286V402.047L90.9255 380.218C93.2752 378.929 95.7007 383.325 95.7007 385.069C95.7007 387.873 51.89 408.263 47.5696 414.175C47.418 428.425 48.5549 444.115 54.0123 457.379L110.102 411.522L111.618 411.143L114.574 416.979L57.2716 467.687C62.35 482.771 68.7927 497.779 78.7222 510.361L132.917 441.007L134.736 439.946L139.739 443.66L84.5585 516.956C84.2553 518.244 84.9375 519.154 85.6197 520.139C87.742 523.398 94.3363 530.372 97.2924 533.479C103.356 539.846 110.026 544.773 116.621 550.534C134.13 522.034 146.03 490.578 161.72 461.093L168.466 464.959L125.64 555.839C125.489 557.962 136.1 564.783 138.299 566.072C147.546 571.681 158.309 576.077 168.542 579.412L193.555 478.602C194.313 477.996 202.12 479.815 200.983 482.544L176.879 582.444C193.479 586.992 210.457 588.887 227.663 589.266V484.666L235.319 484.969L236.759 589.266C243.656 588.887 250.63 588.508 257.527 587.674C267.381 586.386 277.007 583.278 286.785 582.444C277.234 550.534 271.55 517.486 264.046 484.969C263.288 481.407 271.095 481.558 272.232 483.681L295.047 577.442C296.108 578.957 301.869 576.532 303.46 576.001C308.16 574.258 339.236 559.326 339.767 556.218L297.7 469.507L303.081 466.702C320.363 492.928 331.505 523.019 347.801 549.927C349.014 550.23 364.704 535.45 366.751 533.252C368.797 531.054 379.788 518.168 379.106 515.591L328.549 451.543V449.951C331.126 449.42 332.263 445.327 334.916 447.526L386.458 508.997L391.233 502.403C397.449 491.033 403.133 479.36 407.075 466.93L257.982 340.728L271.095 349.217C299.443 370.364 328.246 390.981 356.063 412.81C374.482 427.212 392.143 442.523 410.637 456.773C413.29 446.313 415.716 435.398 416.322 424.559C416.625 418.723 417.838 411.522 412.002 408.414C363.188 383.477 314.148 358.919 264.88 334.967C263.818 334.436 262.757 335.422 263.212 333.224C264.652 333.072 265.941 333.678 267.229 334.133C302.096 346.943 338.933 363.846 372.663 379.536C387.443 386.433 401.466 395.074 417.08 399.925V361.268L267.002 323.37L269.276 322.157C318.695 331.404 367.964 341.485 417.08 352.173V318.822L353.789 316.548C328.397 313.592 302.702 314.199 277.31 312.683C251.918 311.167 268.669 312.304 267.078 310.409C277.386 308.514 287.619 310.485 297.775 310.409C326.199 310.181 354.851 309.348 383.426 309.575C391.612 309.575 400.101 311.015 408.439 310.409C416.777 309.802 417.156 309.575 417.156 306.998V277.816L267.078 300.176C316.27 288.2 365.69 276.452 415.791 268.72C416.322 268.569 417.156 267.129 417.156 266.825V233.096C363.567 246.36 314.527 271.904 263.288 291.459C263.439 290.322 264.728 290.019 265.562 289.565C278.371 281.909 295.881 273.647 309.524 266.825C343.784 249.771 379.03 234.46 415.64 222.863C417.914 221.196 417.307 213.616 417.156 210.811C417.004 208.007 412.911 180.417 411.471 180.872C357.352 208.917 308.614 245.223 260.483 282.288L257.148 283.122C267.911 272.889 279.433 263.187 290.878 253.561C314.072 234.157 337.417 214.601 363.037 198.381C377.817 188.982 393.356 180.72 408.06 171.321L408.439 170.108C403.512 155.631 397.828 140.472 387.898 128.647C366.978 144.489 350.606 165.485 331.354 183.373L328.094 184.51L324.153 180.038L380.546 119.628C380.697 118.945 380.697 118.339 380.546 117.733C379.864 114.094 359.929 94.842 355.988 91.4311C352.046 88.0203 349.166 84.6852 346.665 87.3381C342.875 91.3554 336.963 102.573 333.855 107.879C323.016 126.146 313.162 145.02 302.626 163.438L295.729 159.269L295.35 158.057C309.827 131.376 324.532 104.696 340.449 78.8488C327.412 68.7678 312.025 62.2493 296.942 55.7308L270.64 149.946L269.048 151.083L261.696 148.961L286.709 53.4569C270.413 48.909 253.737 45.574 236.683 45.8772L235.925 145.55L234.712 147.369H227.587C227.587 147.445 227.587 47.0141 227.587 47.0141C227.587 46.7867 228.497 46.4835 228.345 45.8772C227.284 45.195 216.37 45.7256 214.323 45.8772C201.437 46.9383 188.476 49.8944 176.046 53.4569L201.665 148.734C202.347 150.78 197.572 152.903 195.98 153.357C194.388 153.812 195.222 153.206 194.767 152.524C193.479 150.174 192.493 146.839 191.735 144.186C187.112 129.481 183.019 114.398 178.698 99.6172C174.605 85.519 169.451 70.8902 167.708 56.4129C165.661 54.2906 129.279 73.1641 124.579 76.196C123.821 77.1813 132.159 93.0987 133.523 95.6C145.651 118.339 159.901 140.32 171.498 163.211L165.737 167.001L116.242 84.8368C115.181 84.382 111.315 87.1865 110.254 87.9445C104.266 92.1891 83.8763 110.911 81.754 117.126V118.566L144.666 183.07L144.969 184.813L140.497 188.755H139.057C118.516 167.759 98.6568 145.853 76.1451 126.98C69.5507 138.653 59.1665 153.812 56.741 167.152C54.3155 180.493 56.0588 169.199 56.741 170.184L119.956 210.584L116.242 216.42H115.181C95.3217 202.701 74.0227 191.104 52.648 180.038C47.8728 193.302 46.9632 207.704 45.902 221.65L99.6421 241.13L96.2313 248.331L47.418 233.172L46.66 268.038C51.132 269.706 86.2261 271.828 86.6808 273.799C87.1356 275.769 85.3165 280.469 83.3458 280.166L46.5842 277.134L46.4326 277.058ZM107.752 54.9728L94.8669 64.4474C97.5956 67.6309 101.613 70.587 102.447 75.438L114.423 65.9634L107.752 54.9728ZM355.305 54.9728L348.105 66.6455L359.777 75.438L366.902 64.4474L355.23 54.9728H355.305ZM97.5198 78.1667C94.6395 75.1348 92.2898 71.3449 90.0159 67.8583L77.4336 80.3648L87.5904 88.2477L98.6568 78.4699C98.2778 78.4699 97.7472 78.4699 97.444 78.1667H97.5198ZM375.392 89.8394L383.729 79.6068L372.739 68.6163L364.932 79.4552C367.509 83.7757 373.269 85.6706 375.467 89.7636L375.392 89.8394ZM72.5826 84.5336L62.4258 96.8885L72.5826 105.681L81.9814 93.2503L72.5826 84.4578V84.5336ZM395.629 91.5827C393.81 89.3846 390.93 87.2623 389.414 84.5336C385.169 86.4285 382.213 89.9152 379.257 93.2503L389.49 105.757L398.964 96.2822V95.221C396.539 95.1452 396.766 92.8713 395.705 91.6585L395.629 91.5827ZM392.067 108.789L401.542 122.432L411.698 113.64L403.058 102.043C402.375 102.043 394.644 109.85 392.067 108.864V108.789ZM68.4138 110.305L57.4232 102.725C56.2104 104.696 48.6307 115.004 49.4645 116.293L60.3793 122.356L68.4138 110.305ZM423.902 134.484L416.322 120.84L405.635 128.117L412.911 141.306L423.902 134.484ZM50.9804 141.381L56.2104 129.633L46.0536 122.508L38.095 136.909L50.9804 141.457V141.381ZM432.997 155.707L427.692 142.064L415.64 146.687C415.185 147.369 420.339 159.952 421.325 160.179L432.997 155.631V155.707ZM47.9486 147.445L35.0631 142.822L30.5153 156.389L43.4007 161.013L47.9486 147.445ZM40.2931 168.744C37.716 168.062 29.6057 163.135 27.4834 164.424L23.0114 178.446L36.579 183.07L40.2931 168.744ZM435.953 164.12L423.144 167.152L426.176 181.554L439.819 179.28C440.88 178.219 436.484 166.394 435.953 164.12ZM35.821 187.618L20.6616 185.344L19.1457 200.503L33.5471 202.777L35.821 187.618ZM442.093 185.344C437.242 185.723 432.618 187.39 427.692 186.86L429.965 202.777L442.775 200.427L442.093 185.344ZM19.1457 209.22V224H32.0312V211.494C32.0312 211.19 33.0924 210.357 32.7892 209.599L20.9648 208.083C20.2827 207.931 19.2973 208.689 19.1457 209.22ZM443.609 208.083L430.723 209.599V224.758C434.968 224.682 439.44 222.863 443.609 224.758V208.083ZM32.0312 230.822H19.1457V244.844L20.2827 245.981H32.0312V230.822ZM443.609 230.822H430.723V245.981H443.609V230.822ZM443.609 252.045C439.44 252.727 434.816 253.637 430.723 252.045V267.962H443.609V252.045ZM32.0312 252.803H19.1457V267.962H32.0312V252.803ZM32.0312 275.542H19.1457V291.459H32.0312V275.542ZM443.609 275.542H430.723V291.459H443.609V275.542ZM443.609 313.441V297.523C443.078 297.296 442.699 298.281 442.472 298.281H430.723V314.199C431.254 314.426 431.633 313.441 431.86 313.441H443.609ZM32.0312 298.281H19.1457V313.441H32.0312V298.281ZM32.0312 320.262H19.1457V335.422L32.0312 336.938V320.262ZM443.609 320.262H430.723V336.938C434.968 335.952 439.289 336.18 443.609 336.18V320.262ZM443.609 343.759H431.86C431.633 343.759 431.254 342.774 430.723 343.001V359.677H443.609V343.759ZM32.0312 343.759H19.1457V359.677H32.0312V343.759ZM32.0312 365.741C31.1974 365.437 30.3637 366.498 30.1363 366.498H19.1457V381.658H30.1363C30.3637 381.658 31.1974 382.719 32.0312 382.416V365.741ZM443.609 365.741C440.198 367.711 435.574 365.741 432.467 365.892C429.359 366.044 431.33 366.195 430.723 366.877V382.416C431.254 382.643 431.633 381.658 431.86 381.658H443.609V365.741ZM32.0312 388.48H19.1457V404.397C19.6763 404.624 20.0553 403.639 20.2827 403.639H32.0312V388.48ZM443.609 388.48H430.723V404.397H443.609V388.48ZM32.0312 410.461H19.1457L19.9037 426.378C24.2241 426.909 28.4687 425.241 32.7892 425.62L32.0312 410.461ZM443.609 411.219L430.723 410.461C431.178 415.539 430.041 420.542 429.965 425.62L443.609 426.378V411.219ZM442.851 432.442L429.208 430.926C429.435 436.08 429.056 441.31 426.934 446.085L441.335 448.359L442.851 432.442ZM34.3051 431.684C31.5764 431.987 21.4954 431.911 20.2069 433.958L22.1776 448.359L35.821 446.085L34.3051 431.684ZM37.337 452.907C35.1389 454.196 24.0725 453.968 23.8451 455.56L28.2413 471.098L41.1268 467.309L37.337 452.907ZM439.819 454.423L425.418 452.907L421.628 467.309L435.271 471.098L439.819 454.423ZM43.4007 472.614L31.349 477.617L35.821 490.806L48.7065 487.016L43.4007 472.614ZM432.997 477.162C428.222 476.556 424.281 474.737 420.112 472.614L414.806 486.637L427.692 491.564L432.997 477.162ZM58.5601 505.889L51.7384 492.246L39.6109 500.204L47.5696 512.711L58.4843 505.889H58.5601ZM423.902 499.901C419.657 499.143 415.412 495.96 412.153 493.079L404.952 505.965L416.625 512.787L423.902 499.977V499.901ZM70.5361 524.763C70.9151 524.08 70.6119 523.247 70.2329 522.565C68.5654 519.533 63.8659 515.136 61.8952 511.953L52.3448 519.987L60.3793 531.509L70.5361 524.763ZM412.532 519.608C409.803 520.063 402.603 511.877 401.163 512.787L392.825 524.914L403.74 531.736L412.532 519.684V519.608ZM74.4775 550.685L84.1037 541.211L75.4629 530.22L65.2303 538.179C65.0787 540.756 73.7953 547.578 74.4017 550.609L74.4775 550.685ZM388.732 530.22L379.333 541.135L387.974 549.776L398.813 538.861L388.732 530.22ZM100.248 556.673L89.2579 546.82L80.5413 556.976C82.8152 558.871 89.7127 567.74 92.214 567.361C94.7153 566.982 97.2924 556.597 100.173 556.673H100.248ZM384.487 555.991C381.152 554.02 376.301 550.382 374.634 546.895L364.022 555.612L372.739 566.603L384.487 555.991ZM110.026 580.17L116.09 568.498C114.347 567.057 104.493 558.644 103.28 559.705C102.143 563.95 99.4905 568.27 96.4586 571.454C98.3536 572.894 108.51 581.231 110.026 580.17ZM360.232 559.781L348.18 568.649L355.305 580.246L367.812 571.529C367.888 570.392 359.626 562.51 360.232 559.781ZM129.051 592.374L134.054 580.246L120.789 571.908C119.804 576.684 117.606 580.928 114.726 584.794L129.127 592.374H129.051ZM335.977 591.616L349.621 584.415C347.423 580.398 343.557 576.608 343.557 571.908L329.913 579.488L335.977 591.616ZM328.397 596.088L322.713 583.278L309.448 589.645L314.754 602.151L328.397 596.088ZM150.275 602.227L154.747 590.479L140.421 584.036L136.707 596.846L150.275 602.227ZM307.932 605.183L303.384 591.54C301.414 593.283 290.272 595.784 289.817 597.3L292.773 610.489L307.932 605.183ZM175.288 596.921L160.128 592.374L157.93 604.804L172.256 609.807L175.288 596.921ZM193.403 615.037C193.403 612.611 197.269 603.667 196.208 602.151L180.593 598.437L178.319 612.081L193.403 615.037ZM285.875 611.929C286.179 611.474 284.738 601.772 284.435 600.256C284.132 598.741 284.132 598.816 283.298 598.362L268.897 602.076L270.11 615.037L285.951 611.929H285.875ZM217.658 605.335L202.574 602.985L200.301 617.387L216.976 618.903L217.658 605.335ZM260.862 603.819L245.779 605.259L246.537 618.903L262.454 617.387L260.862 603.819ZM223.04 619.66H237.82C238.047 619.66 238.957 618.675 239.715 618.903V606.396C239.715 606.244 240.852 605.562 240.473 605.259H223.798L223.04 619.66Z"/>
</mask>
<path d="M350.606 591.085C203.105 682.951 18.0845 582.444 10.7322 410.082C7.92775 344.593 12.9303 277.134 10.7322 211.418C27.1044 19.9546 265.638 -59.8597 396.994 82.1839C434.286 122.508 448.839 164.575 451.113 219.073C453.235 269.706 452.25 321.551 451.947 372.107C451.795 394.771 452.629 416.979 449.521 439.491C440.88 501.872 403.664 558.038 350.606 591.085ZM216.976 17.0743L200.983 19.045L201.816 32.2337L216.976 30.7178V17.0743ZM239.715 17.0743H223.04L223.798 29.9598H237.062C237.214 29.9598 237.517 30.5662 237.82 30.5662L238.881 29.505L239.715 17.0743ZM261.696 17.8323L245.779 17.0743L245.021 30.7178L260.256 31.1725L261.696 17.8323ZM193.479 20.1062L177.561 22.3801L179.835 36.0235L194.995 33.7496L193.479 20.1062ZM282.919 36.7815C281.707 34.1286 285.951 24.5782 284.89 23.0623L269.276 20.1062L267.76 33.7496L282.919 36.7815ZM172.256 24.654L156.338 29.2018L159.37 42.8453L174.53 38.2975C173.014 34.2044 171.119 28.8986 172.256 24.654ZM306.341 29.2018L291.257 24.5782C290.954 29.2776 289.968 34.2802 287.467 38.2217L303.384 42.7695L306.341 29.2018ZM149.517 32.9917L135.949 39.5102L140.421 51.9409L154.064 45.8772L149.517 32.9917ZM323.092 51.9409L327.336 39.0554L313.238 32.9917L308.69 45.8772L323.092 51.9409ZM135.115 54.897C131.553 51.4861 130.34 46.8625 127.914 42.7695L115.635 50.7282L121.244 61.7945L135.191 54.897H135.115ZM342.041 62.5525L347.347 50.8798L334.84 42.8453L329.307 54.5938L341.965 62.5525H342.041ZM46.4326 277.058V309.272C46.4326 309.575 47.6454 310.56 48.2518 310.409L79.4043 309.651L80.9961 310.333L80.0865 317.23C68.8685 317.458 57.499 319.656 46.4326 317.23V354.371L80.9961 345.275L82.4362 346.033L84.1037 350.96C83.9521 352.249 81.2993 353.234 80.2381 353.613C73.7196 356.039 51.8142 359.753 48.0244 363.088C44.2345 366.423 46.4326 364.983 46.4326 365.286V402.047L90.9255 380.218C93.2752 378.929 95.7007 383.325 95.7007 385.069C95.7007 387.873 51.89 408.263 47.5696 414.175C47.418 428.425 48.5549 444.115 54.0123 457.379L110.102 411.522L111.618 411.143L114.574 416.979L57.2716 467.687C62.35 482.771 68.7927 497.779 78.7222 510.361L132.917 441.007L134.736 439.946L139.739 443.66L84.5585 516.956C84.2553 518.244 84.9375 519.154 85.6197 520.139C87.742 523.398 94.3363 530.372 97.2924 533.479C103.356 539.846 110.026 544.773 116.621 550.534C134.13 522.034 146.03 490.578 161.72 461.093L168.466 464.959L125.64 555.839C125.489 557.962 136.1 564.783 138.299 566.072C147.546 571.681 158.309 576.077 168.542 579.412L193.555 478.602C194.313 477.996 202.12 479.815 200.983 482.544L176.879 582.444C193.479 586.992 210.457 588.887 227.663 589.266V484.666L235.319 484.969L236.759 589.266C243.656 588.887 250.63 588.508 257.527 587.674C267.381 586.386 277.007 583.278 286.785 582.444C277.234 550.534 271.55 517.486 264.046 484.969C263.288 481.407 271.095 481.558 272.232 483.681L295.047 577.442C296.108 578.957 301.869 576.532 303.46 576.001C308.16 574.258 339.236 559.326 339.767 556.218L297.7 469.507L303.081 466.702C320.363 492.928 331.505 523.019 347.801 549.927C349.014 550.23 364.704 535.45 366.751 533.252C368.797 531.054 379.788 518.168 379.106 515.591L328.549 451.543V449.951C331.126 449.42 332.263 445.327 334.916 447.526L386.458 508.997L391.233 502.403C397.449 491.033 403.133 479.36 407.075 466.93L257.982 340.728L271.095 349.217C299.443 370.364 328.246 390.981 356.063 412.81C374.482 427.212 392.143 442.523 410.637 456.773C413.29 446.313 415.716 435.398 416.322 424.559C416.625 418.723 417.838 411.522 412.002 408.414C363.188 383.477 314.148 358.919 264.88 334.967C263.818 334.436 262.757 335.422 263.212 333.224C264.652 333.072 265.941 333.678 267.229 334.133C302.096 346.943 338.933 363.846 372.663 379.536C387.443 386.433 401.466 395.074 417.08 399.925V361.268L267.002 323.37L269.276 322.157C318.695 331.404 367.964 341.485 417.08 352.173V318.822L353.789 316.548C328.397 313.592 302.702 314.199 277.31 312.683C251.918 311.167 268.669 312.304 267.078 310.409C277.386 308.514 287.619 310.485 297.775 310.409C326.199 310.181 354.851 309.348 383.426 309.575C391.612 309.575 400.101 311.015 408.439 310.409C416.777 309.802 417.156 309.575 417.156 306.998V277.816L267.078 300.176C316.27 288.2 365.69 276.452 415.791 268.72C416.322 268.569 417.156 267.129 417.156 266.825V233.096C363.567 246.36 314.527 271.904 263.288 291.459C263.439 290.322 264.728 290.019 265.562 289.565C278.371 281.909 295.881 273.647 309.524 266.825C343.784 249.771 379.03 234.46 415.64 222.863C417.914 221.196 417.307 213.616 417.156 210.811C417.004 208.007 412.911 180.417 411.471 180.872C357.352 208.917 308.614 245.223 260.483 282.288L257.148 283.122C267.911 272.889 279.433 263.187 290.878 253.561C314.072 234.157 337.417 214.601 363.037 198.381C377.817 188.982 393.356 180.72 408.06 171.321L408.439 170.108C403.512 155.631 397.828 140.472 387.898 128.647C366.978 144.489 350.606 165.485 331.354 183.373L328.094 184.51L324.153 180.038L380.546 119.628C380.697 118.945 380.697 118.339 380.546 117.733C379.864 114.094 359.929 94.842 355.988 91.4311C352.046 88.0203 349.166 84.6852 346.665 87.3381C342.875 91.3554 336.963 102.573 333.855 107.879C323.016 126.146 313.162 145.02 302.626 163.438L295.729 159.269L295.35 158.057C309.827 131.376 324.532 104.696 340.449 78.8488C327.412 68.7678 312.025 62.2493 296.942 55.7308L270.64 149.946L269.048 151.083L261.696 148.961L286.709 53.4569C270.413 48.909 253.737 45.574 236.683 45.8772L235.925 145.55L234.712 147.369H227.587C227.587 147.445 227.587 47.0141 227.587 47.0141C227.587 46.7867 228.497 46.4835 228.345 45.8772C227.284 45.195 216.37 45.7256 214.323 45.8772C201.437 46.9383 188.476 49.8944 176.046 53.4569L201.665 148.734C202.347 150.78 197.572 152.903 195.98 153.357C194.388 153.812 195.222 153.206 194.767 152.524C193.479 150.174 192.493 146.839 191.735 144.186C187.112 129.481 183.019 114.398 178.698 99.6172C174.605 85.519 169.451 70.8902 167.708 56.4129C165.661 54.2906 129.279 73.1641 124.579 76.196C123.821 77.1813 132.159 93.0987 133.523 95.6C145.651 118.339 159.901 140.32 171.498 163.211L165.737 167.001L116.242 84.8368C115.181 84.382 111.315 87.1865 110.254 87.9445C104.266 92.1891 83.8763 110.911 81.754 117.126V118.566L144.666 183.07L144.969 184.813L140.497 188.755H139.057C118.516 167.759 98.6568 145.853 76.1451 126.98C69.5507 138.653 59.1665 153.812 56.741 167.152C54.3155 180.493 56.0588 169.199 56.741 170.184L119.956 210.584L116.242 216.42H115.181C95.3217 202.701 74.0227 191.104 52.648 180.038C47.8728 193.302 46.9632 207.704 45.902 221.65L99.6421 241.13L96.2313 248.331L47.418 233.172L46.66 268.038C51.132 269.706 86.2261 271.828 86.6808 273.799C87.1356 275.769 85.3165 280.469 83.3458 280.166L46.5842 277.134L46.4326 277.058ZM107.752 54.9728L94.8669 64.4474C97.5956 67.6309 101.613 70.587 102.447 75.438L114.423 65.9634L107.752 54.9728ZM355.305 54.9728L348.105 66.6455L359.777 75.438L366.902 64.4474L355.23 54.9728H355.305ZM97.5198 78.1667C94.6395 75.1348 92.2898 71.3449 90.0159 67.8583L77.4336 80.3648L87.5904 88.2477L98.6568 78.4699C98.2778 78.4699 97.7472 78.4699 97.444 78.1667H97.5198ZM375.392 89.8394L383.729 79.6068L372.739 68.6163L364.932 79.4552C367.509 83.7757 373.269 85.6706 375.467 89.7636L375.392 89.8394ZM72.5826 84.5336L62.4258 96.8885L72.5826 105.681L81.9814 93.2503L72.5826 84.4578V84.5336ZM395.629 91.5827C393.81 89.3846 390.93 87.2623 389.414 84.5336C385.169 86.4285 382.213 89.9152 379.257 93.2503L389.49 105.757L398.964 96.2822V95.221C396.539 95.1452 396.766 92.8713 395.705 91.6585L395.629 91.5827ZM392.067 108.789L401.542 122.432L411.698 113.64L403.058 102.043C402.375 102.043 394.644 109.85 392.067 108.864V108.789ZM68.4138 110.305L57.4232 102.725C56.2104 104.696 48.6307 115.004 49.4645 116.293L60.3793 122.356L68.4138 110.305ZM423.902 134.484L416.322 120.84L405.635 128.117L412.911 141.306L423.902 134.484ZM50.9804 141.381L56.2104 129.633L46.0536 122.508L38.095 136.909L50.9804 141.457V141.381ZM432.997 155.707L427.692 142.064L415.64 146.687C415.185 147.369 420.339 159.952 421.325 160.179L432.997 155.631V155.707ZM47.9486 147.445L35.0631 142.822L30.5153 156.389L43.4007 161.013L47.9486 147.445ZM40.2931 168.744C37.716 168.062 29.6057 163.135 27.4834 164.424L23.0114 178.446L36.579 183.07L40.2931 168.744ZM435.953 164.12L423.144 167.152L426.176 181.554L439.819 179.28C440.88 178.219 436.484 166.394 435.953 164.12ZM35.821 187.618L20.6616 185.344L19.1457 200.503L33.5471 202.777L35.821 187.618ZM442.093 185.344C437.242 185.723 432.618 187.39 427.692 186.86L429.965 202.777L442.775 200.427L442.093 185.344ZM19.1457 209.22V224H32.0312V211.494C32.0312 211.19 33.0924 210.357 32.7892 209.599L20.9648 208.083C20.2827 207.931 19.2973 208.689 19.1457 209.22ZM443.609 208.083L430.723 209.599V224.758C434.968 224.682 439.44 222.863 443.609 224.758V208.083ZM32.0312 230.822H19.1457V244.844L20.2827 245.981H32.0312V230.822ZM443.609 230.822H430.723V245.981H443.609V230.822ZM443.609 252.045C439.44 252.727 434.816 253.637 430.723 252.045V267.962H443.609V252.045ZM32.0312 252.803H19.1457V267.962H32.0312V252.803ZM32.0312 275.542H19.1457V291.459H32.0312V275.542ZM443.609 275.542H430.723V291.459H443.609V275.542ZM443.609 313.441V297.523C443.078 297.296 442.699 298.281 442.472 298.281H430.723V314.199C431.254 314.426 431.633 313.441 431.86 313.441H443.609ZM32.0312 298.281H19.1457V313.441H32.0312V298.281ZM32.0312 320.262H19.1457V335.422L32.0312 336.938V320.262ZM443.609 320.262H430.723V336.938C434.968 335.952 439.289 336.18 443.609 336.18V320.262ZM443.609 343.759H431.86C431.633 343.759 431.254 342.774 430.723 343.001V359.677H443.609V343.759ZM32.0312 343.759H19.1457V359.677H32.0312V343.759ZM32.0312 365.741C31.1974 365.437 30.3637 366.498 30.1363 366.498H19.1457V381.658H30.1363C30.3637 381.658 31.1974 382.719 32.0312 382.416V365.741ZM443.609 365.741C440.198 367.711 435.574 365.741 432.467 365.892C429.359 366.044 431.33 366.195 430.723 366.877V382.416C431.254 382.643 431.633 381.658 431.86 381.658H443.609V365.741ZM32.0312 388.48H19.1457V404.397C19.6763 404.624 20.0553 403.639 20.2827 403.639H32.0312V388.48ZM443.609 388.48H430.723V404.397H443.609V388.48ZM32.0312 410.461H19.1457L19.9037 426.378C24.2241 426.909 28.4687 425.241 32.7892 425.62L32.0312 410.461ZM443.609 411.219L430.723 410.461C431.178 415.539 430.041 420.542 429.965 425.62L443.609 426.378V411.219ZM442.851 432.442L429.208 430.926C429.435 436.08 429.056 441.31 426.934 446.085L441.335 448.359L442.851 432.442ZM34.3051 431.684C31.5764 431.987 21.4954 431.911 20.2069 433.958L22.1776 448.359L35.821 446.085L34.3051 431.684ZM37.337 452.907C35.1389 454.196 24.0725 453.968 23.8451 455.56L28.2413 471.098L41.1268 467.309L37.337 452.907ZM439.819 454.423L425.418 452.907L421.628 467.309L435.271 471.098L439.819 454.423ZM43.4007 472.614L31.349 477.617L35.821 490.806L48.7065 487.016L43.4007 472.614ZM432.997 477.162C428.222 476.556 424.281 474.737 420.112 472.614L414.806 486.637L427.692 491.564L432.997 477.162ZM58.5601 505.889L51.7384 492.246L39.6109 500.204L47.5696 512.711L58.4843 505.889H58.5601ZM423.902 499.901C419.657 499.143 415.412 495.96 412.153 493.079L404.952 505.965L416.625 512.787L423.902 499.977V499.901ZM70.5361 524.763C70.9151 524.08 70.6119 523.247 70.2329 522.565C68.5654 519.533 63.8659 515.136 61.8952 511.953L52.3448 519.987L60.3793 531.509L70.5361 524.763ZM412.532 519.608C409.803 520.063 402.603 511.877 401.163 512.787L392.825 524.914L403.74 531.736L412.532 519.684V519.608ZM74.4775 550.685L84.1037 541.211L75.4629 530.22L65.2303 538.179C65.0787 540.756 73.7953 547.578 74.4017 550.609L74.4775 550.685ZM388.732 530.22L379.333 541.135L387.974 549.776L398.813 538.861L388.732 530.22ZM100.248 556.673L89.2579 546.82L80.5413 556.976C82.8152 558.871 89.7127 567.74 92.214 567.361C94.7153 566.982 97.2924 556.597 100.173 556.673H100.248ZM384.487 555.991C381.152 554.02 376.301 550.382 374.634 546.895L364.022 555.612L372.739 566.603L384.487 555.991ZM110.026 580.17L116.09 568.498C114.347 567.057 104.493 558.644 103.28 559.705C102.143 563.95 99.4905 568.27 96.4586 571.454C98.3536 572.894 108.51 581.231 110.026 580.17ZM360.232 559.781L348.18 568.649L355.305 580.246L367.812 571.529C367.888 570.392 359.626 562.51 360.232 559.781ZM129.051 592.374L134.054 580.246L120.789 571.908C119.804 576.684 117.606 580.928 114.726 584.794L129.127 592.374H129.051ZM335.977 591.616L349.621 584.415C347.423 580.398 343.557 576.608 343.557 571.908L329.913 579.488L335.977 591.616ZM328.397 596.088L322.713 583.278L309.448 589.645L314.754 602.151L328.397 596.088ZM150.275 602.227L154.747 590.479L140.421 584.036L136.707 596.846L150.275 602.227ZM307.932 605.183L303.384 591.54C301.414 593.283 290.272 595.784 289.817 597.3L292.773 610.489L307.932 605.183ZM175.288 596.921L160.128 592.374L157.93 604.804L172.256 609.807L175.288 596.921ZM193.403 615.037C193.403 612.611 197.269 603.667 196.208 602.151L180.593 598.437L178.319 612.081L193.403 615.037ZM285.875 611.929C286.179 611.474 284.738 601.772 284.435 600.256C284.132 598.741 284.132 598.816 283.298 598.362L268.897 602.076L270.11 615.037L285.951 611.929H285.875ZM217.658 605.335L202.574 602.985L200.301 617.387L216.976 618.903L217.658 605.335ZM260.862 603.819L245.779 605.259L246.537 618.903L262.454 617.387L260.862 603.819ZM223.04 619.66H237.82C238.047 619.66 238.957 618.675 239.715 618.903V606.396C239.715 606.244 240.852 605.562 240.473 605.259H223.798L223.04 619.66Z" fill="#002E77"/>
<path d="M350.606 591.085C203.105 682.951 18.0845 582.444 10.7322 410.082C7.92775 344.593 12.9303 277.134 10.7322 211.418C27.1044 19.9546 265.638 -59.8597 396.994 82.1839C434.286 122.508 448.839 164.575 451.113 219.073C453.235 269.706 452.25 321.551 451.947 372.107C451.795 394.771 452.629 416.979 449.521 439.491C440.88 501.872 403.664 558.038 350.606 591.085ZM216.976 17.0743L200.983 19.045L201.816 32.2337L216.976 30.7178V17.0743ZM239.715 17.0743H223.04L223.798 29.9598H237.062C237.214 29.9598 237.517 30.5662 237.82 30.5662L238.881 29.505L239.715 17.0743ZM261.696 17.8323L245.779 17.0743L245.021 30.7178L260.256 31.1725L261.696 17.8323ZM193.479 20.1062L177.561 22.3801L179.835 36.0235L194.995 33.7496L193.479 20.1062ZM282.919 36.7815C281.707 34.1286 285.951 24.5782 284.89 23.0623L269.276 20.1062L267.76 33.7496L282.919 36.7815ZM172.256 24.654L156.338 29.2018L159.37 42.8453L174.53 38.2975C173.014 34.2044 171.119 28.8986 172.256 24.654ZM306.341 29.2018L291.257 24.5782C290.954 29.2776 289.968 34.2802 287.467 38.2217L303.384 42.7695L306.341 29.2018ZM149.517 32.9917L135.949 39.5102L140.421 51.9409L154.064 45.8772L149.517 32.9917ZM323.092 51.9409L327.336 39.0554L313.238 32.9917L308.69 45.8772L323.092 51.9409ZM135.115 54.897C131.553 51.4861 130.34 46.8625 127.914 42.7695L115.635 50.7282L121.244 61.7945L135.191 54.897H135.115ZM342.041 62.5525L347.347 50.8798L334.84 42.8453L329.307 54.5938L341.965 62.5525H342.041ZM46.4326 277.058V309.272C46.4326 309.575 47.6454 310.56 48.2518 310.409L79.4043 309.651L80.9961 310.333L80.0865 317.23C68.8685 317.458 57.499 319.656 46.4326 317.23V354.371L80.9961 345.275L82.4362 346.033L84.1037 350.96C83.9521 352.249 81.2993 353.234 80.2381 353.613C73.7196 356.039 51.8142 359.753 48.0244 363.088C44.2345 366.423 46.4326 364.983 46.4326 365.286V402.047L90.9255 380.218C93.2752 378.929 95.7007 383.325 95.7007 385.069C95.7007 387.873 51.89 408.263 47.5696 414.175C47.418 428.425 48.5549 444.115 54.0123 457.379L110.102 411.522L111.618 411.143L114.574 416.979L57.2716 467.687C62.35 482.771 68.7927 497.779 78.7222 510.361L132.917 441.007L134.736 439.946L139.739 443.66L84.5585 516.956C84.2553 518.244 84.9375 519.154 85.6197 520.139C87.742 523.398 94.3363 530.372 97.2924 533.479C103.356 539.846 110.026 544.773 116.621 550.534C134.13 522.034 146.03 490.578 161.72 461.093L168.466 464.959L125.64 555.839C125.489 557.962 136.1 564.783 138.299 566.072C147.546 571.681 158.309 576.077 168.542 579.412L193.555 478.602C194.313 477.996 202.12 479.815 200.983 482.544L176.879 582.444C193.479 586.992 210.457 588.887 227.663 589.266V484.666L235.319 484.969L236.759 589.266C243.656 588.887 250.63 588.508 257.527 587.674C267.381 586.386 277.007 583.278 286.785 582.444C277.234 550.534 271.55 517.486 264.046 484.969C263.288 481.407 271.095 481.558 272.232 483.681L295.047 577.442C296.108 578.957 301.869 576.532 303.46 576.001C308.16 574.258 339.236 559.326 339.767 556.218L297.7 469.507L303.081 466.702C320.363 492.928 331.505 523.019 347.801 549.927C349.014 550.23 364.704 535.45 366.751 533.252C368.797 531.054 379.788 518.168 379.106 515.591L328.549 451.543V449.951C331.126 449.42 332.263 445.327 334.916 447.526L386.458 508.997L391.233 502.403C397.449 491.033 403.133 479.36 407.075 466.93L257.982 340.728L271.095 349.217C299.443 370.364 328.246 390.981 356.063 412.81C374.482 427.212 392.143 442.523 410.637 456.773C413.29 446.313 415.716 435.398 416.322 424.559C416.625 418.723 417.838 411.522 412.002 408.414C363.188 383.477 314.148 358.919 264.88 334.967C263.818 334.436 262.757 335.422 263.212 333.224C264.652 333.072 265.941 333.678 267.229 334.133C302.096 346.943 338.933 363.846 372.663 379.536C387.443 386.433 401.466 395.074 417.08 399.925V361.268L267.002 323.37L269.276 322.157C318.695 331.404 367.964 341.485 417.08 352.173V318.822L353.789 316.548C328.397 313.592 302.702 314.199 277.31 312.683C251.918 311.167 268.669 312.304 267.078 310.409C277.386 308.514 287.619 310.485 297.775 310.409C326.199 310.181 354.851 309.348 383.426 309.575C391.612 309.575 400.101 311.015 408.439 310.409C416.777 309.802 417.156 309.575 417.156 306.998V277.816L267.078 300.176C316.27 288.2 365.69 276.452 415.791 268.72C416.322 268.569 417.156 267.129 417.156 266.825V233.096C363.567 246.36 314.527 271.904 263.288 291.459C263.439 290.322 264.728 290.019 265.562 289.565C278.371 281.909 295.881 273.647 309.524 266.825C343.784 249.771 379.03 234.46 415.64 222.863C417.914 221.196 417.307 213.616 417.156 210.811C417.004 208.007 412.911 180.417 411.471 180.872C357.352 208.917 308.614 245.223 260.483 282.288L257.148 283.122C267.911 272.889 279.433 263.187 290.878 253.561C314.072 234.157 337.417 214.601 363.037 198.381C377.817 188.982 393.356 180.72 408.06 171.321L408.439 170.108C403.512 155.631 397.828 140.472 387.898 128.647C366.978 144.489 350.606 165.485 331.354 183.373L328.094 184.51L324.153 180.038L380.546 119.628C380.697 118.945 380.697 118.339 380.546 117.733C379.864 114.094 359.929 94.842 355.988 91.4311C352.046 88.0203 349.166 84.6852 346.665 87.3381C342.875 91.3554 336.963 102.573 333.855 107.879C323.016 126.146 313.162 145.02 302.626 163.438L295.729 159.269L295.35 158.057C309.827 131.376 324.532 104.696 340.449 78.8488C327.412 68.7678 312.025 62.2493 296.942 55.7308L270.64 149.946L269.048 151.083L261.696 148.961L286.709 53.4569C270.413 48.909 253.737 45.574 236.683 45.8772L235.925 145.55L234.712 147.369H227.587C227.587 147.445 227.587 47.0141 227.587 47.0141C227.587 46.7867 228.497 46.4835 228.345 45.8772C227.284 45.195 216.37 45.7256 214.323 45.8772C201.437 46.9383 188.476 49.8944 176.046 53.4569L201.665 148.734C202.347 150.78 197.572 152.903 195.98 153.357C194.388 153.812 195.222 153.206 194.767 152.524C193.479 150.174 192.493 146.839 191.735 144.186C187.112 129.481 183.019 114.398 178.698 99.6172C174.605 85.519 169.451 70.8902 167.708 56.4129C165.661 54.2906 129.279 73.1641 124.579 76.196C123.821 77.1813 132.159 93.0987 133.523 95.6C145.651 118.339 159.901 140.32 171.498 163.211L165.737 167.001L116.242 84.8368C115.181 84.382 111.315 87.1865 110.254 87.9445C104.266 92.1891 83.8763 110.911 81.754 117.126V118.566L144.666 183.07L144.969 184.813L140.497 188.755H139.057C118.516 167.759 98.6568 145.853 76.1451 126.98C69.5507 138.653 59.1665 153.812 56.741 167.152C54.3155 180.493 56.0588 169.199 56.741 170.184L119.956 210.584L116.242 216.42H115.181C95.3217 202.701 74.0227 191.104 52.648 180.038C47.8728 193.302 46.9632 207.704 45.902 221.65L99.6421 241.13L96.2313 248.331L47.418 233.172L46.66 268.038C51.132 269.706 86.2261 271.828 86.6808 273.799C87.1356 275.769 85.3165 280.469 83.3458 280.166L46.5842 277.134L46.4326 277.058ZM107.752 54.9728L94.8669 64.4474C97.5956 67.6309 101.613 70.587 102.447 75.438L114.423 65.9634L107.752 54.9728ZM355.305 54.9728L348.105 66.6455L359.777 75.438L366.902 64.4474L355.23 54.9728H355.305ZM97.5198 78.1667C94.6395 75.1348 92.2898 71.3449 90.0159 67.8583L77.4336 80.3648L87.5904 88.2477L98.6568 78.4699C98.2778 78.4699 97.7472 78.4699 97.444 78.1667H97.5198ZM375.392 89.8394L383.729 79.6068L372.739 68.6163L364.932 79.4552C367.509 83.7757 373.269 85.6706 375.467 89.7636L375.392 89.8394ZM72.5826 84.5336L62.4258 96.8885L72.5826 105.681L81.9814 93.2503L72.5826 84.4578V84.5336ZM395.629 91.5827C393.81 89.3846 390.93 87.2623 389.414 84.5336C385.169 86.4285 382.213 89.9152 379.257 93.2503L389.49 105.757L398.964 96.2822V95.221C396.539 95.1452 396.766 92.8713 395.705 91.6585L395.629 91.5827ZM392.067 108.789L401.542 122.432L411.698 113.64L403.058 102.043C402.375 102.043 394.644 109.85 392.067 108.864V108.789ZM68.4138 110.305L57.4232 102.725C56.2104 104.696 48.6307 115.004 49.4645 116.293L60.3793 122.356L68.4138 110.305ZM423.902 134.484L416.322 120.84L405.635 128.117L412.911 141.306L423.902 134.484ZM50.9804 141.381L56.2104 129.633L46.0536 122.508L38.095 136.909L50.9804 141.457V141.381ZM432.997 155.707L427.692 142.064L415.64 146.687C415.185 147.369 420.339 159.952 421.325 160.179L432.997 155.631V155.707ZM47.9486 147.445L35.0631 142.822L30.5153 156.389L43.4007 161.013L47.9486 147.445ZM40.2931 168.744C37.716 168.062 29.6057 163.135 27.4834 164.424L23.0114 178.446L36.579 183.07L40.2931 168.744ZM435.953 164.12L423.144 167.152L426.176 181.554L439.819 179.28C440.88 178.219 436.484 166.394 435.953 164.12ZM35.821 187.618L20.6616 185.344L19.1457 200.503L33.5471 202.777L35.821 187.618ZM442.093 185.344C437.242 185.723 432.618 187.39 427.692 186.86L429.965 202.777L442.775 200.427L442.093 185.344ZM19.1457 209.22V224H32.0312V211.494C32.0312 211.19 33.0924 210.357 32.7892 209.599L20.9648 208.083C20.2827 207.931 19.2973 208.689 19.1457 209.22ZM443.609 208.083L430.723 209.599V224.758C434.968 224.682 439.44 222.863 443.609 224.758V208.083ZM32.0312 230.822H19.1457V244.844L20.2827 245.981H32.0312V230.822ZM443.609 230.822H430.723V245.981H443.609V230.822ZM443.609 252.045C439.44 252.727 434.816 253.637 430.723 252.045V267.962H443.609V252.045ZM32.0312 252.803H19.1457V267.962H32.0312V252.803ZM32.0312 275.542H19.1457V291.459H32.0312V275.542ZM443.609 275.542H430.723V291.459H443.609V275.542ZM443.609 313.441V297.523C443.078 297.296 442.699 298.281 442.472 298.281H430.723V314.199C431.254 314.426 431.633 313.441 431.86 313.441H443.609ZM32.0312 298.281H19.1457V313.441H32.0312V298.281ZM32.0312 320.262H19.1457V335.422L32.0312 336.938V320.262ZM443.609 320.262H430.723V336.938C434.968 335.952 439.289 336.18 443.609 336.18V320.262ZM443.609 343.759H431.86C431.633 343.759 431.254 342.774 430.723 343.001V359.677H443.609V343.759ZM32.0312 343.759H19.1457V359.677H32.0312V343.759ZM32.0312 365.741C31.1974 365.437 30.3637 366.498 30.1363 366.498H19.1457V381.658H30.1363C30.3637 381.658 31.1974 382.719 32.0312 382.416V365.741ZM443.609 365.741C440.198 367.711 435.574 365.741 432.467 365.892C429.359 366.044 431.33 366.195 430.723 366.877V382.416C431.254 382.643 431.633 381.658 431.86 381.658H443.609V365.741ZM32.0312 388.48H19.1457V404.397C19.6763 404.624 20.0553 403.639 20.2827 403.639H32.0312V388.48ZM443.609 388.48H430.723V404.397H443.609V388.48ZM32.0312 410.461H19.1457L19.9037 426.378C24.2241 426.909 28.4687 425.241 32.7892 425.62L32.0312 410.461ZM443.609 411.219L430.723 410.461C431.178 415.539 430.041 420.542 429.965 425.62L443.609 426.378V411.219ZM442.851 432.442L429.208 430.926C429.435 436.08 429.056 441.31 426.934 446.085L441.335 448.359L442.851 432.442ZM34.3051 431.684C31.5764 431.987 21.4954 431.911 20.2069 433.958L22.1776 448.359L35.821 446.085L34.3051 431.684ZM37.337 452.907C35.1389 454.196 24.0725 453.968 23.8451 455.56L28.2413 471.098L41.1268 467.309L37.337 452.907ZM439.819 454.423L425.418 452.907L421.628 467.309L435.271 471.098L439.819 454.423ZM43.4007 472.614L31.349 477.617L35.821 490.806L48.7065 487.016L43.4007 472.614ZM432.997 477.162C428.222 476.556 424.281 474.737 420.112 472.614L414.806 486.637L427.692 491.564L432.997 477.162ZM58.5601 505.889L51.7384 492.246L39.6109 500.204L47.5696 512.711L58.4843 505.889H58.5601ZM423.902 499.901C419.657 499.143 415.412 495.96 412.153 493.079L404.952 505.965L416.625 512.787L423.902 499.977V499.901ZM70.5361 524.763C70.9151 524.08 70.6119 523.247 70.2329 522.565C68.5654 519.533 63.8659 515.136 61.8952 511.953L52.3448 519.987L60.3793 531.509L70.5361 524.763ZM412.532 519.608C409.803 520.063 402.603 511.877 401.163 512.787L392.825 524.914L403.74 531.736L412.532 519.684V519.608ZM74.4775 550.685L84.1037 541.211L75.4629 530.22L65.2303 538.179C65.0787 540.756 73.7953 547.578 74.4017 550.609L74.4775 550.685ZM388.732 530.22L379.333 541.135L387.974 549.776L398.813 538.861L388.732 530.22ZM100.248 556.673L89.2579 546.82L80.5413 556.976C82.8152 558.871 89.7127 567.74 92.214 567.361C94.7153 566.982 97.2924 556.597 100.173 556.673H100.248ZM384.487 555.991C381.152 554.02 376.301 550.382 374.634 546.895L364.022 555.612L372.739 566.603L384.487 555.991ZM110.026 580.17L116.09 568.498C114.347 567.057 104.493 558.644 103.28 559.705C102.143 563.95 99.4905 568.27 96.4586 571.454C98.3536 572.894 108.51 581.231 110.026 580.17ZM360.232 559.781L348.18 568.649L355.305 580.246L367.812 571.529C367.888 570.392 359.626 562.51 360.232 559.781ZM129.051 592.374L134.054 580.246L120.789 571.908C119.804 576.684 117.606 580.928 114.726 584.794L129.127 592.374H129.051ZM335.977 591.616L349.621 584.415C347.423 580.398 343.557 576.608 343.557 571.908L329.913 579.488L335.977 591.616ZM328.397 596.088L322.713 583.278L309.448 589.645L314.754 602.151L328.397 596.088ZM150.275 602.227L154.747 590.479L140.421 584.036L136.707 596.846L150.275 602.227ZM307.932 605.183L303.384 591.54C301.414 593.283 290.272 595.784 289.817 597.3L292.773 610.489L307.932 605.183ZM175.288 596.921L160.128 592.374L157.93 604.804L172.256 609.807L175.288 596.921ZM193.403 615.037C193.403 612.611 197.269 603.667 196.208 602.151L180.593 598.437L178.319 612.081L193.403 615.037ZM285.875 611.929C286.179 611.474 284.738 601.772 284.435 600.256C284.132 598.741 284.132 598.816 283.298 598.362L268.897 602.076L270.11 615.037L285.951 611.929H285.875ZM217.658 605.335L202.574 602.985L200.301 617.387L216.976 618.903L217.658 605.335ZM260.862 603.819L245.779 605.259L246.537 618.903L262.454 617.387L260.862 603.819ZM223.04 619.66H237.82C238.047 619.66 238.957 618.675 239.715 618.903V606.396C239.715 606.244 240.852 605.562 240.473 605.259H223.798L223.04 619.66Z" stroke="#FEF1D0" stroke-width="19.7072" mask="url(#path-1-outside-1_125_1437)"/>
<path d="M46.4334 277.058L83.1949 280.09C85.1657 280.317 86.7574 274.633 86.53 273.723C86.0752 271.752 50.9054 269.63 46.5092 267.962L47.2672 233.096L96.0804 248.255L99.4913 241.055L45.7512 221.575C46.8124 207.628 47.7219 193.227 52.4972 179.962C73.8719 191.028 95.2467 202.625 115.03 216.345H116.091L119.805 210.584L56.5902 170.184C55.908 169.123 56.3628 168.214 56.5902 167.152C59.0157 153.812 69.3999 138.729 75.9942 126.98C98.5059 145.853 118.365 167.835 138.906 188.83H140.346L144.818 184.813L144.515 183.07L81.5274 118.567V117.126C83.6497 110.911 104.039 92.1892 110.103 87.9446C116.167 83.6999 115.105 84.3821 116.091 84.8369L165.586 167.001L171.347 163.211C159.75 140.32 145.5 118.339 133.373 95.6001C132.008 93.0988 123.746 77.2572 124.429 76.196C129.128 73.24 165.51 54.2907 167.557 56.413C169.3 70.8903 174.455 85.5191 178.548 99.6173C182.868 114.398 187.037 129.481 191.585 144.186C196.132 158.891 193.328 150.174 194.617 152.524C195.905 154.873 194.313 153.736 195.829 153.357C197.345 152.978 202.196 150.78 201.514 148.734L175.895 53.4569C188.325 49.8945 201.211 46.9384 214.172 45.8772C227.133 44.8161 227.133 45.1951 228.195 45.8772C228.346 46.4836 227.437 46.7868 227.437 47.0142V147.445H234.562C234.562 147.369 235.774 145.55 235.774 145.55L236.532 45.8772C253.587 45.5741 270.262 48.9091 286.558 53.4569L261.545 148.961L268.898 151.083L270.489 149.947L296.791 55.7309C311.875 62.2494 327.261 68.7679 340.298 78.8489C324.381 104.696 309.676 131.3 295.199 158.057L295.578 159.27L302.476 163.438C313.011 145.02 322.865 126.146 333.704 107.879C344.543 89.6121 342.724 91.3554 346.514 87.3382C350.304 83.321 353.563 89.4605 355.837 91.4312C359.778 94.8421 379.713 114.095 380.395 117.733C380.547 118.415 380.547 119.021 380.395 119.628L324.002 180.038L327.943 184.51L331.203 183.373C350.379 165.485 366.752 144.489 387.747 128.648C397.601 140.472 403.286 155.631 408.288 170.109L407.909 171.321C393.205 180.72 377.666 188.982 362.886 198.381C337.267 214.677 313.997 234.157 290.727 253.561C279.282 263.111 267.685 272.813 256.997 283.122L260.333 282.288C308.388 245.223 357.201 208.841 411.32 180.872C412.76 180.417 416.853 208.613 417.005 210.812C417.157 213.01 417.763 221.196 415.489 222.863C378.955 234.46 343.709 249.771 309.373 266.825C295.73 273.647 278.221 281.909 265.411 289.565C252.601 297.22 263.364 290.323 263.137 291.46C314.376 271.904 363.416 246.36 417.005 233.096V266.825C417.005 267.129 416.247 268.569 415.641 268.72C365.463 276.452 316.119 288.2 266.927 300.176L417.005 277.816V306.998C417.005 309.651 410.335 310.257 408.288 310.409C399.951 311.015 391.461 309.651 383.275 309.575C354.7 309.348 326.049 310.181 297.625 310.409C287.392 310.485 277.235 308.514 266.927 310.409C268.519 312.304 274.507 312.531 277.159 312.683C302.551 314.199 328.322 313.516 353.639 316.548L416.929 318.822V352.173C367.813 341.486 318.545 331.405 269.125 322.157L266.851 323.37L416.929 361.269V399.925C401.239 395.074 387.217 386.433 372.512 379.536C338.782 363.846 301.945 346.943 267.078 334.133C232.212 321.324 264.501 333.072 263.061 333.224C262.606 335.422 263.668 334.436 264.729 334.967C314.073 358.919 363.037 383.477 411.851 408.414C417.611 411.522 416.474 418.723 416.171 424.559C415.565 435.398 413.139 446.313 410.486 456.773C391.916 442.599 374.255 427.212 355.913 412.81C328.019 390.981 299.216 370.44 270.944 349.217L257.831 340.728L406.924 466.93C403.058 479.36 397.298 491.033 391.082 502.403L386.307 508.997L334.765 447.526C332.112 445.252 330.975 449.42 328.398 449.951V451.543L378.955 515.591C379.637 518.093 368.95 530.751 366.6 533.252C364.25 535.753 348.863 550.23 347.651 549.927C331.354 523.019 320.136 493.004 302.93 466.702L297.549 469.507L339.616 556.218C339.086 559.326 308.009 574.258 303.309 576.001C298.61 577.745 295.957 579.033 294.896 577.442L272.081 483.681C270.944 481.558 263.137 481.331 263.895 484.969C271.399 517.486 277.084 550.534 286.634 582.444C276.781 583.278 267.23 586.31 257.376 587.674C250.555 588.584 243.506 588.963 236.608 589.266L235.168 484.969L227.512 484.666V589.266C210.307 588.811 193.328 586.916 176.728 582.444L200.832 482.544C202.045 479.815 194.162 477.996 193.404 478.602L168.391 579.412C158.158 576.077 147.395 571.681 138.148 566.072C128.901 560.463 125.338 557.962 125.49 555.839L168.315 464.959L161.569 461.093C145.879 490.578 133.979 522.034 116.47 550.534C109.8 544.849 103.205 539.846 97.1416 533.479C91.0778 527.112 87.5912 523.398 85.4688 520.139C83.3465 516.88 84.1045 518.244 84.4077 516.956L139.588 443.66L134.585 439.946L132.766 441.007L78.5713 510.361C68.6419 497.779 62.1992 482.771 57.1208 467.688L114.423 416.979L111.467 411.143L109.951 411.522L53.8615 457.379C48.4041 444.115 47.2672 428.425 47.4188 414.175C51.7392 408.187 95.5498 387.873 95.5498 385.069C95.5498 382.264 93.1243 378.929 90.7746 380.218L46.2818 402.047V365.286C46.2818 364.983 47.4188 363.467 47.8735 363.088C51.5876 359.753 73.5687 356.039 80.0873 353.613C81.2242 353.158 83.8771 352.249 83.9529 350.96L82.2854 346.033L80.8452 345.275L46.2818 354.371V317.23C57.2724 319.732 68.6419 317.534 79.9357 317.23L80.8452 310.333L79.2535 309.651L48.1009 310.409C47.4946 310.56 46.2818 309.651 46.2818 309.272V277.058H46.4334ZM310.207 186.86C310.359 185.874 310.131 184.889 309.676 183.979C308.539 181.781 292.167 174.429 288.756 173.065C180.897 130.164 80.4663 232.868 95.853 340.197C109.875 438.051 216.294 505.207 306.114 449.875C308.918 448.132 323.017 438.581 323.926 436.611C324.836 434.64 323.926 435.171 322.865 435.55C277.614 448.511 228.27 423.953 202.499 386.736C167.405 336.18 172.332 283.425 206.138 233.93C230.014 198.911 267.609 180.72 310.283 186.86H310.207ZM275.34 203.535L267.003 204.824L241.99 275.542L244.415 273.799L275.34 203.535ZM313.997 207.325C309.297 207.552 308.843 205.203 305.28 208.841C289.211 225.289 275.644 247.8 259.423 264.552L250.327 277.816L313.997 207.325ZM234.41 275.542C234.562 266.598 234.183 257.578 234.41 248.634C234.486 242.874 235.926 236.507 235.244 230.443C234.562 224.379 235.244 228.548 234.107 227.866L229.938 231.428L232.212 275.618H234.486L234.41 275.542ZM221.524 276.3L206.744 243.707L204.622 248.028C210.685 257.123 213.642 268.72 221.524 276.3ZM253.359 346.791L251.843 347.17C251.692 348.914 256.694 355.584 258.059 357.63C272.991 379.687 289.287 400.683 304.901 422.209C307.63 424.786 311.571 422.513 314.755 422.588L253.359 346.791ZM220.084 349.141L205.152 373.32C204.167 375.443 206.213 376.58 207.502 377.868L223.04 350.202C222.434 349.217 221.145 348.61 220.084 349.141ZM270.793 421.072L243.885 349.823L262.531 420.239L270.793 421.072ZM234.41 350.581H231.378L229.559 403.715L233.652 404.397L234.41 407.429V350.581Z" fill="#FEF1D0"/>
<path d="M223.041 619.66L223.799 605.259H240.474C240.853 605.562 239.716 606.244 239.716 606.396V618.902C238.958 618.675 238.049 619.66 237.821 619.66H223.041Z" fill="#FEF1D0"/>
<path d="M217.659 605.335L216.977 618.903L200.302 617.387L202.576 602.985L217.659 605.335Z" fill="#FEF1D0"/>
<path d="M35.8216 187.618L33.5477 202.777L19.1462 200.427L20.6622 185.344L35.8216 187.618Z" fill="#FEF1D0"/>
<path d="M97.5214 78.167C97.8246 78.4702 98.3552 78.4702 98.7341 78.4702L87.6678 88.248L77.511 80.3651L90.0933 67.8586C92.3672 71.3453 94.7169 75.1352 97.5972 78.167H97.5214Z" fill="#FEF1D0"/>
<path d="M72.5843 84.5338L81.9831 93.3263L72.5843 105.757L62.4275 96.8887L72.5843 84.5338Z" fill="#FEF1D0"/>
<path d="M260.864 603.819L262.455 617.387L246.538 618.902L245.78 605.259L260.864 603.819Z" fill="#FEF1D0"/>
<path d="M110.028 580.17C108.512 581.232 98.3554 572.97 96.4604 571.454C99.4923 568.27 102.145 563.95 103.282 559.705C104.571 558.644 114.424 567.058 116.092 568.498L110.028 580.17Z" fill="#FEF1D0"/>
<path d="M439.82 454.423L435.272 471.099L421.629 467.233L425.419 452.907L439.82 454.423Z" fill="#FEF1D0"/>
<path d="M40.2937 168.744L36.5796 183.07L23.012 178.446L27.484 164.424C29.6063 163.059 37.7166 168.062 40.2937 168.744Z" fill="#FEF1D0"/>
<path d="M285.876 611.929L270.034 615.037L268.822 602.076L283.223 598.362C284.133 598.741 284.208 599.347 284.36 600.257C284.663 601.773 286.179 611.399 285.8 611.929H285.876Z" fill="#FEF1D0"/>
<path d="M261.697 17.8326L260.257 31.097L245.022 30.718L245.78 17.0746L261.697 17.8326Z" fill="#FEF1D0"/>
<path d="M306.342 29.2019L303.386 42.7695L287.469 38.2217C289.97 34.2803 290.955 29.2777 291.259 24.5782L306.342 29.2019Z" fill="#FEF1D0"/>
<path d="M282.92 36.7819L267.761 33.75L269.277 20.1066L284.891 23.0627C286.028 24.5028 281.708 34.0532 282.92 36.7819Z" fill="#FEF1D0"/>
<path d="M193.48 20.1066L194.996 33.6742L179.836 36.0239L177.562 22.3805L193.48 20.1066Z" fill="#FEF1D0"/>
<path d="M193.404 615.037L178.321 612.081L180.595 598.437L196.209 602.151C197.27 603.591 193.48 612.611 193.404 615.037Z" fill="#FEF1D0"/>
<path d="M172.257 24.6543C171.12 28.8989 173.015 34.2047 174.531 38.2978L159.372 42.8456L156.34 29.2021L172.257 24.6543Z" fill="#FEF1D0"/>
<path d="M442.853 432.442L441.337 448.359L426.936 446.085C429.058 441.31 429.437 436.08 429.209 430.926L442.853 432.442Z" fill="#FEF1D0"/>
<path d="M34.307 431.684L35.8229 446.085L22.1795 448.359L20.2087 433.958C21.4215 431.911 31.5025 431.987 34.307 431.684Z" fill="#FEF1D0"/>
<path d="M129.053 592.374L114.651 584.794C117.607 580.929 119.73 576.684 120.715 571.909L133.98 580.246L128.977 592.374H129.053Z" fill="#FEF1D0"/>
<path d="M216.977 17.0746V30.718L201.818 32.234L200.984 19.0453L216.977 17.0746Z" fill="#FEF1D0"/>
<path d="M37.3383 452.907L41.1282 467.309L28.2427 471.099L23.8464 455.56C24.1496 453.969 35.1402 454.272 37.3383 452.907Z" fill="#FEF1D0"/>
<path d="M442.093 185.344L442.775 200.427L429.966 202.777L427.692 186.86C432.619 187.39 437.242 185.723 442.093 185.344Z" fill="#FEF1D0"/>
<path d="M307.933 605.183L292.774 610.489L289.818 597.3C290.273 595.784 301.415 593.283 303.386 591.54L307.933 605.183Z" fill="#FEF1D0"/>
<path d="M360.232 559.781C359.626 562.51 367.888 570.393 367.812 571.53L355.306 580.246L348.181 568.649L360.232 559.781Z" fill="#FEF1D0"/>
<path d="M323.093 51.9412L308.691 45.8016L313.239 32.9919L327.337 38.9799L323.093 51.9412Z" fill="#FEF1D0"/>
<path d="M100.25 556.673C97.3695 556.522 92.9733 567.209 92.2911 567.361C89.7898 567.815 82.8923 558.871 80.6184 556.976L89.3351 546.82L100.326 556.673H100.25Z" fill="#FEF1D0"/>
<path d="M443.611 320.262V336.18C439.291 336.18 434.97 335.952 430.726 336.938V320.262H443.611Z" fill="#FEF1D0"/>
<path d="M395.63 91.5827C396.691 92.8712 396.464 95.0693 398.889 95.1451V96.2063L389.415 105.681L379.182 93.1744C382.138 89.8394 385.17 86.3527 389.339 84.4578C390.931 87.1865 393.735 89.3088 395.554 91.5069L395.63 91.5827Z" fill="#FEF1D0"/>
<path d="M443.611 343.76V359.677H430.726V343.002C431.256 342.774 431.635 343.76 431.863 343.76H443.611Z" fill="#FEF1D0"/>
<path d="M32.0317 275.542H19.1462V291.46H32.0317V275.542Z" fill="#FEF1D0"/>
<path d="M443.611 275.542H430.726V291.46H443.611V275.542Z" fill="#FEF1D0"/>
<path d="M32.0317 320.262V336.938L19.1462 335.422V320.262H32.0317Z" fill="#FEF1D0"/>
<path d="M32.0317 343.759H19.1462V359.677H32.0317V343.759Z" fill="#FEF1D0"/>
<path d="M443.611 388.48H430.726V404.397H443.611V388.48Z" fill="#FEF1D0"/>
<path d="M328.399 596.088L314.755 602.227L309.449 589.645L322.714 583.354L328.399 596.088Z" fill="#FEF1D0"/>
<path d="M435.955 164.121C436.486 166.395 440.882 178.219 439.821 179.28L426.178 181.554L423.146 167.152L435.955 164.121Z" fill="#FEF1D0"/>
<path d="M175.288 596.922L172.181 609.731L157.931 604.729L160.129 592.374L175.288 596.922Z" fill="#FEF1D0"/>
<path d="M239.716 17.0746L238.882 29.5053L237.821 30.5665C237.518 30.5665 237.215 29.9601 237.063 29.9601H223.799L223.041 17.0746H239.716Z" fill="#FEF1D0"/>
<path d="M388.733 530.22L398.89 538.937L387.975 549.851L379.334 541.211L388.733 530.22Z" fill="#FEF1D0"/>
<path d="M355.307 54.9728L366.98 64.4474L359.779 75.438L348.107 66.6455L355.307 54.9728Z" fill="#FEF1D0"/>
<path d="M335.98 591.616L329.916 579.488L343.559 571.909C343.559 576.608 347.425 580.474 349.623 584.415L335.98 591.616Z" fill="#FEF1D0"/>
<path d="M135.115 54.8973L121.169 61.7948L115.56 50.7285L127.839 42.7698C130.264 46.8628 131.477 51.4864 135.04 54.8973H135.115Z" fill="#FEF1D0"/>
<path d="M107.753 54.9728L114.423 65.9633L102.447 75.438C101.613 70.6628 97.5961 67.7067 94.8674 64.4474L107.753 54.9728Z" fill="#FEF1D0"/>
<path d="M32.0317 410.461L32.7897 425.62C28.3935 425.241 24.2246 426.909 19.9042 426.378L19.1462 410.461H32.0317Z" fill="#FEF1D0"/>
<path d="M432.999 477.162L427.693 491.564L414.808 486.637L420.113 472.615C424.282 474.737 428.224 476.632 432.999 477.162Z" fill="#FEF1D0"/>
<path d="M392.068 108.789C394.645 109.774 402.377 101.967 403.059 101.967L411.7 113.564L401.543 122.356L392.068 108.713V108.789Z" fill="#FEF1D0"/>
<path d="M423.902 499.901L416.625 512.711L404.953 505.889L412.153 493.004C415.413 495.884 419.657 499.067 423.902 499.825V499.901Z" fill="#FEF1D0"/>
<path d="M74.4783 550.686C73.8719 547.654 65.1553 540.756 65.3069 538.255L75.5395 530.296L84.1803 541.287L74.5541 550.761L74.4783 550.686Z" fill="#FEF1D0"/>
<path d="M443.611 208.083V224.758C439.442 222.863 434.97 224.682 430.726 224.758V209.599L443.611 208.083Z" fill="#FEF1D0"/>
<path d="M375.393 89.8394C373.195 85.6705 367.51 83.8514 364.857 79.531L372.664 68.692L383.655 79.6826L375.317 89.9152L375.393 89.8394Z" fill="#FEF1D0"/>
<path d="M68.4152 110.305L60.3807 122.356L49.466 116.293C48.5564 115.004 56.2119 104.696 57.4247 102.725L68.4152 110.305Z" fill="#FEF1D0"/>
<path d="M150.276 602.227L136.708 596.846L140.422 584.036L154.748 590.403L150.276 602.227Z" fill="#FEF1D0"/>
<path d="M47.9492 147.446L43.4014 161.089L30.5159 156.465L35.0637 142.898L47.9492 147.446Z" fill="#FEF1D0"/>
<path d="M32.0317 365.741V382.416C31.198 382.719 30.3642 381.658 30.1368 381.658H19.1462V366.499H30.1368C30.3642 366.499 31.198 365.438 32.0317 365.741Z" fill="#FEF1D0"/>
<path d="M443.611 365.741V381.658H431.863C431.635 381.658 431.256 382.643 430.726 382.416V366.878C431.256 366.196 431.484 365.892 432.469 365.892C435.652 365.817 440.2 367.787 443.611 365.741Z" fill="#FEF1D0"/>
<path d="M149.518 32.9919L154.065 45.8016L140.422 51.9412L135.95 39.5105L149.518 32.9919Z" fill="#FEF1D0"/>
<path d="M443.611 252.045V267.963H430.726V252.045C434.819 253.637 439.442 252.727 443.611 252.045Z" fill="#FEF1D0"/>
<path d="M19.1462 209.22C19.2978 208.765 20.2832 208.007 20.9654 208.083L32.7897 209.599C33.0929 210.357 32.0317 211.19 32.0317 211.494V224H19.1462V209.22Z" fill="#FEF1D0"/>
<path d="M443.611 313.441H431.863C431.635 313.441 431.256 314.426 430.726 314.199V298.282H442.474C442.702 298.282 443.08 297.296 443.611 297.524V313.441Z" fill="#FEF1D0"/>
<path d="M58.5616 505.889L47.6468 512.711L39.6123 500.28L51.7398 492.322L58.5616 505.889Z" fill="#FEF1D0"/>
<path d="M443.611 411.219V426.378L429.967 425.62C430.043 420.542 431.18 415.539 430.725 410.461L443.611 411.219Z" fill="#FEF1D0"/>
<path d="M384.488 555.991L372.739 566.603L364.022 555.612L374.634 546.896C376.302 550.382 381.228 554.021 384.488 555.991Z" fill="#FEF1D0"/>
<path d="M32.0317 388.48V403.639H20.2832C20.0558 403.639 19.6768 404.625 19.1462 404.397V388.48H32.0317Z" fill="#FEF1D0"/>
<path d="M32.0317 298.281H19.1462V313.441H32.0317V298.281Z" fill="#FEF1D0"/>
<path d="M32.0317 252.803H19.1462V267.962H32.0317V252.803Z" fill="#FEF1D0"/>
<path d="M443.611 230.822H430.726V245.982H443.611V230.822Z" fill="#FEF1D0"/>
<path d="M32.0317 230.822V245.982H20.2832L19.1462 244.845V230.822H32.0317Z" fill="#FEF1D0"/>
<path d="M412.534 519.609L403.741 531.66L392.827 524.839L401.164 512.711C402.604 511.726 409.729 519.988 412.534 519.533V519.609Z" fill="#FEF1D0"/>
<path d="M43.4018 472.615L48.7076 486.94L35.8221 490.806L31.3501 477.617L43.4018 472.615Z" fill="#FEF1D0"/>
<path d="M432.999 155.707L421.326 160.255C420.341 160.027 415.111 147.369 415.642 146.763L427.693 142.139L432.999 155.783V155.707Z" fill="#FEF1D0"/>
<path d="M342.041 62.5524L329.307 54.5938L334.841 42.8452L347.347 50.8039L342.041 62.5524Z" fill="#FEF1D0"/>
<path d="M70.5377 524.763L60.3809 531.509L52.3464 519.987L61.8969 511.953C63.8676 515.136 68.567 519.533 70.2345 522.565C71.9021 525.596 70.9167 524.005 70.5377 524.763Z" fill="#FEF1D0"/>
<path d="M423.902 134.484L412.912 141.306L405.635 128.117L416.322 120.916L423.902 134.484Z" fill="#FEF1D0"/>
<path d="M50.9809 141.381L38.0955 136.758L46.0541 122.432L56.2109 129.557L50.9809 141.381Z" fill="#FEF1D0"/>
<path d="M310.207 186.86C267.534 180.72 229.938 198.911 206.062 233.93C172.257 283.425 167.33 336.18 202.424 386.736C228.195 423.877 277.615 448.511 322.79 435.55C323.775 435.095 324.154 435.777 323.851 436.611C323.017 438.582 308.843 448.208 306.039 449.875C216.295 505.207 109.876 438.051 95.7777 340.197C80.3909 232.793 180.822 130.088 288.681 173.065C292.092 174.429 308.388 181.781 309.601 183.979C310.056 184.889 310.283 185.799 310.132 186.86H310.207Z" fill="#002E77"/>
<path d="M253.358 346.791L314.754 422.588C311.571 422.588 307.629 424.786 304.9 422.209C289.286 400.683 272.99 379.687 258.058 357.63C256.693 355.584 251.691 348.914 251.842 347.17L253.358 346.791Z" fill="#002E77"/>
<path d="M313.998 207.325L250.328 277.816L259.424 264.552C275.645 247.8 289.212 225.213 305.281 208.841C308.844 205.203 309.298 207.552 313.998 207.325Z" fill="#002E77"/>
<path d="M275.341 203.535L244.416 273.799L241.99 275.467L266.927 204.748L275.341 203.535Z" fill="#002E77"/>
<path d="M270.793 421.073L262.531 420.239L243.885 349.823L270.793 421.073Z" fill="#002E77"/>
<path d="M234.411 350.581V407.429L233.577 404.397L229.56 403.715L231.379 350.581H234.411Z" fill="#002E77"/>
<path d="M234.41 275.542H232.136L229.862 231.353L234.031 227.79C235.168 228.472 235.092 229.23 235.168 230.367C235.85 236.431 234.486 242.798 234.334 248.559C234.183 257.503 234.562 266.522 234.334 275.466L234.41 275.542Z" fill="#002E77"/>
<path d="M220.085 349.141C221.071 348.535 222.359 349.217 223.041 350.202L207.503 377.868C206.215 376.579 204.168 375.443 205.153 373.32L220.085 349.141Z" fill="#002E77"/>
<path d="M221.525 276.3C213.642 268.721 210.686 257.048 204.622 248.028L206.744 243.708L221.525 276.3Z" fill="#002E77"/>
</svg>
